<svg xmlns="http://www.w3.org/2000/svg" viewBox="0 0 445 175"><defs><style>.cls-1{fill:#1a1a1a;}.cls-2{fill:#fff;}.cls-2,.cls-3,.cls-33{stroke:#fff;}.cls-2,.cls-3,.cls-33,.cls-36{stroke-miterlimit:10;}.cls-3{fill:#ddd;}.cls-4{font-size:14px;font-family:Calibri-Bold, Calibri;}.cls-13,.cls-35,.cls-4{fill:#606060;}.cls-19,.cls-37,.cls-4,.cls-6,.cls-8{font-weight:700;}.cls-5{letter-spacing:-0.01em;}.cls-6{font-size:10px;}.cls-15,.cls-19,.cls-37,.cls-6,.cls-8,.cls-9{fill:#404040;}.cls-19,.cls-37,.cls-6{font-family:NirmalaUI-Bold, Nirmala UI;}.cls-7{letter-spacing:-0.03em;}.cls-8{font-size:15px;font-family:Tahoma-Bold, Tahoma;}.cls-37,.cls-9{font-size:7px;}.cls-15,.cls-9{font-family:NirmalaUI, Nirmala UI;}.cls-10{fill:#22b573;}.cls-11{letter-spacing:-0.02em;}.cls-12{letter-spacing:-0.02em;}.cls-14{fill:silver;}.cls-15,.cls-17,.cls-19{font-size:8px;}.cls-16{letter-spacing:0.03em;}.cls-18{letter-spacing:0.01em;}.cls-20{font-size:6px;}.cls-21{letter-spacing:-0.04em;}.cls-22{letter-spacing:0em;}.cls-23{letter-spacing:-0.1em;}.cls-24{fill:#d4d4d4;}.cls-25{fill:#005b84;}.cls-26{fill:#fcb550;}.cls-27{letter-spacing:-0.01em;}.cls-28{fill:#3fa9f5;}.cls-29{letter-spacing:0.01em;}.cls-30{letter-spacing:0.02em;}.cls-31{letter-spacing:-0.02em;}.cls-32{fill:#d53d3b;}.cls-33{fill:none;stroke-width:0.75px;}.cls-34{fill:#e1e1e1;}.cls-35{font-size:12px;font-family:Calibri-Light, Calibri;}.cls-36{fill:#f5f5f5;stroke:#000;stroke-width:0.25px;}</style></defs><title>Chiller Report</title><g id="Background"><rect class="cls-1" x="-0.5" width="445.5" height="175"/></g><g id="Components"><rect class="cls-2" x="4.5" y="25.92" width="435" height="143.08"/><rect class="cls-3" x="4.5" y="5.92" width="435" height="20"/><text class="cls-4" transform="translate(9.13 21.61)">CHILLE<tspan class="cls-5" x="38.64" y="0">R</tspan><tspan x="46.39" y="0">S</tspan></text><text class="cls-6" transform="translate(159.5 41.4)"><tspan class="cls-7">S</tspan><tspan x="5.28" y="0">tatus</tspan></text><text class="cls-8" transform="translate(47.3 43.83)">Chiller1</text><text class="cls-9" transform="translate(177.51 82.48)">Running</text><circle class="cls-10" cx="171.2" cy="80.37" r="3.5"/><text class="cls-9" transform="translate(177.51 68.33)">Called</text><circle class="cls-10" cx="171.2" cy="66.22" r="3.5"/><text class="cls-9" transform="translate(177.51 55.17)"><tspan class="cls-11">A</tspan><tspan class="cls-12" x="4.37" y="0">v</tspan><tspan x="7.59" y="0">ailable</tspan></text><circle class="cls-10" cx="171.2" cy="53.06" r="3.5"/><path class="cls-13" d="M193.84,156.7l4.5.08a4.54,4.54,0,1,1,0-.08Z"/><path class="cls-14" d="M236.34,156.7l4.5.08a4.54,4.54,0,1,1,0-.08Z"/><path class="cls-14" d="M208,156.7l4.5.08a4.54,4.54,0,1,1,0-.08Z"/><path class="cls-14" d="M222.17,156.7l4.5.08a4.54,4.54,0,1,1,0-.08Z"/><text class="cls-15" transform="translate(331.53 60.44)">R<tspan class="cls-16" x="4.79" y="0">L</tspan><tspan x="8.78" y="0">A</tspan></text><text class="cls-6" transform="translate(330.53 52.44)">22<tspan class="cls-17" x="11.5" y="0" xml:space="preserve"> A</tspan></text><text class="cls-15" transform="translate(379.79 60.44)">Run Hou<tspan class="cls-18" x="30.93" y="0">r</tspan><tspan x="33.76" y="0">s</tspan></text><text class="cls-6" transform="translate(378.79 52.44)">1000<tspan class="cls-17" x="23.01" y="0" xml:space="preserve"> Hr</tspan></text><text class="cls-9" transform="translate(189.67 129.87)">Delta T</text><text class="cls-19" transform="translate(189.67 121.87)">12.1 º<tspan class="cls-20" x="21.83" y="0">F</tspan></text><text class="cls-15" transform="translate(332.03 82.19)">%R<tspan class="cls-16" x="11.33" y="0">L</tspan><tspan x="15.33" y="0">A</tspan></text><text class="cls-6" transform="translate(331.03 74.19)">25<tspan class="cls-17" x="11.5" y="0" xml:space="preserve"> %</tspan></text><text class="cls-6" transform="translate(224.36 41.22)"><tspan class="cls-21">P</tspan><tspan x="5.77" y="0">o</tspan><tspan class="cls-22" x="11.88" y="0">w</tspan><tspan x="19.81" y="0">er</tspan></text><text class="cls-9" transform="translate(291.05 68.53)"><tspan class="cls-23">T</tspan><tspan x="2.95" y="0">ons</tspan></text><text class="cls-19" transform="translate(230.71 68.53)">760 <tspan class="cls-20" x="16.01" y="0">tR</tspan></text><rect class="cls-24" x="230.78" y="69.5" width="75" height="3" rx="1.5" ry="1.5"/><rect class="cls-25" x="230.78" y="69.5" width="56.25" height="3" rx="1.5" ry="1.5"/><text class="cls-9" transform="translate(276.24 83.23)">Efficiency</text><text class="cls-19" transform="translate(230.71 83.23)">0.540<tspan class="cls-20" x="20.57" y="0" xml:space="preserve"> kW/tR</tspan></text><rect class="cls-24" x="230.78" y="85.19" width="75" height="3" rx="1.5" ry="1.5"/><rect class="cls-10" x="230.78" y="85.19" width="56.25" height="3" rx="1.5" ry="1.5"/><text class="cls-9" transform="translate(283.16 53.68)">Electric</text><text class="cls-19" transform="translate(230.71 53.97)">540 <tspan class="cls-20" x="16.01" y="0">kW</tspan></text><rect class="cls-24" x="230.78" y="54.94" width="75" height="3" rx="1.5" ry="1.5"/><rect class="cls-26" x="230.78" y="54.94" width="43.98" height="3" rx="1.5" ry="1.5"/><text class="cls-6" transform="translate(16.77 108.45)">E<tspan class="cls-12" x="5.32" y="0">v</tspan><tspan x="10.56" y="0">apora</tspan><tspan class="cls-27" x="37.62" y="0">t</tspan><tspan x="41.43" y="0">or</tspan></text><text class="cls-9" transform="translate(79.19 135.76)">Flow</text><text class="cls-19" transform="translate(19.86 135.76)">760 <tspan class="cls-20" x="16.01" y="0">gpm</tspan></text><rect class="cls-24" x="19.18" y="136.73" width="75" height="3" rx="1.5" ry="1.5"/><rect class="cls-25" x="19.18" y="136.73" width="56.25" height="3" rx="1.5" ry="1.5"/><text class="cls-9" transform="translate(85.35 120.91)">DP</text><text class="cls-19" transform="translate(19.86 121.2)">4.7 <tspan class="cls-20" x="13.58" y="0">psi</tspan></text><rect class="cls-24" x="19.18" y="122.16" width="75" height="3" rx="1.5" ry="1.5"/><rect class="cls-28" x="19.18" y="122.16" width="43.98" height="3" rx="1.5" ry="1.5"/><text class="cls-9" transform="translate(164.7 135.76)"><tspan class="cls-29">E</tspan><tspan class="cls-30" x="3.64" y="0">W</tspan><tspan x="10.31" y="0">T</tspan></text><text class="cls-19" transform="translate(104.36 135.76)">54.2 º<tspan class="cls-20" x="21.83" y="0">F</tspan></text><rect class="cls-24" x="103.68" y="136.73" width="75" height="3" rx="1.5" ry="1.5"/><rect class="cls-25" x="103.68" y="136.73" width="56.25" height="3" rx="1.5" ry="1.5"/><text class="cls-9" transform="translate(165.5 120.91)"><tspan class="cls-31">L</tspan><tspan class="cls-30" x="3.13" y="0">W</tspan><tspan x="9.8" y="0">T</tspan></text><text class="cls-19" transform="translate(104.36 121.2)">42.1 º<tspan class="cls-20" x="21.83" y="0">F</tspan></text><rect class="cls-24" x="103.68" y="122.16" width="75" height="3" rx="1.5" ry="1.5"/><rect class="cls-28" x="103.68" y="122.16" width="43.98" height="3" rx="1.5" ry="1.5"/><text class="cls-9" transform="translate(404.27 129.56)">Delta T</text><text class="cls-19" transform="translate(404.27 121.56)">10.1 º<tspan class="cls-20" x="21.83" y="0">F</tspan></text><text class="cls-6" transform="translate(224.36 108.13)">Condenser</text><text class="cls-9" transform="translate(293.79 135.45)">Flow</text><text class="cls-19" transform="translate(234.45 135.45)">1,200 <tspan class="cls-20" x="22.78" y="0">gpm</tspan></text><rect class="cls-24" x="233.78" y="136.73" width="75" height="3" rx="1.5" ry="1.5"/><rect class="cls-32" x="233.78" y="136.73" width="56.25" height="3" rx="1.5" ry="1.5"/><text class="cls-9" transform="translate(299.94 120.59)">DP</text><text class="cls-19" transform="translate(234.45 120.88)">8.3 <tspan class="cls-20" x="13.58" y="0">psi</tspan></text><rect class="cls-24" x="233.78" y="122.16" width="75" height="3" rx="1.5" ry="1.5"/><rect class="cls-26" x="233.78" y="122.16" width="43.98" height="3" rx="1.5" ry="1.5"/><text class="cls-9" transform="translate(379.29 135.45)"><tspan class="cls-31">L</tspan><tspan class="cls-30" x="3.13" y="0">W</tspan><tspan x="9.8" y="0">T</tspan></text><text class="cls-19" transform="translate(318.95 135.45)">88.2 º<tspan class="cls-20" x="21.83" y="0">F</tspan></text><rect class="cls-24" x="318.28" y="136.73" width="75" height="3" rx="1.5" ry="1.5"/><rect class="cls-32" x="318.28" y="136.73" width="56.25" height="3" rx="1.5" ry="1.5"/><text class="cls-9" transform="translate(380.1 120.59)"><tspan class="cls-29">E</tspan><tspan class="cls-30" x="3.64" y="0">W</tspan><tspan x="10.31" y="0">T</tspan></text><text class="cls-19" transform="translate(318.95 120.88)">78.1 º<tspan class="cls-20" x="21.83" y="0">F</tspan></text><rect class="cls-24" x="318.28" y="122.16" width="75" height="3" rx="1.5" ry="1.5"/><rect class="cls-26" x="318.28" y="122.16" width="43.98" height="3" rx="1.5" ry="1.5"/><line class="cls-33" x1="149.84" y1="136.73" x2="149.84" y2="139.73"/><line class="cls-33" x1="147.49" y1="122.26" x2="147.49" y2="125.26"/><line class="cls-33" x1="58.96" y1="122.2" x2="58.96" y2="125.2"/><line class="cls-33" x1="67.84" y1="136.73" x2="67.84" y2="139.73"/><line class="cls-33" x1="371.84" y1="136.73" x2="371.84" y2="139.73"/><line class="cls-33" x1="359.84" y1="122.26" x2="359.84" y2="125.26"/><line class="cls-33" x1="282.96" y1="122.2" x2="282.96" y2="125.2"/><line class="cls-33" x1="293.84" y1="136.73" x2="293.84" y2="139.73"/><rect class="cls-34" x="38.56" y="48.47" width="77.5" height="46.31"/><text class="cls-35" transform="translate(52.04 75.14)">CH IM<tspan class="cls-22" x="29.63" y="0">A</tspan><tspan x="36.33" y="0">GE</tspan></text><polygon class="cls-36" points="68.56 128.61 71.25 129.14 71.25 129.14 66.12 123.7 67.58 131.19 67.58 131.19 68.56 128.61"/><rect class="cls-24" x="71.25" y="86.5" width="76.24" height="26.75" rx="5.51" ry="5.51"/><text class="cls-37" transform="translate(73.93 94.46)">DP</text><text class="cls-9" transform="translate(88 94.46)">Min:</text><text class="cls-9" transform="translate(88 102.33)">Design:</text><text class="cls-9" transform="translate(88 110)">Max:</text><text class="cls-19" transform="translate(114.86 94.52)">4.7 <tspan class="cls-20" x="13.58" y="0">psi</tspan></text><text class="cls-19" transform="translate(114.86 102.74)">4.7 <tspan class="cls-20" x="13.58" y="0">psi</tspan></text><text class="cls-19" transform="translate(114.86 109.88)">4.7 <tspan class="cls-20" x="13.58" y="0">psi</tspan></text></g></svg>